<?xml version="1.0" standalone="no"?>
<!DOCTYPE svg PUBLIC "-//W3C//DTD SVG 20010904//EN"
 "http://www.w3.org/TR/2001/REC-SVG-20010904/DTD/svg10.dtd">
<svg version="1.0" xmlns="http://www.w3.org/2000/svg"
 width="16.000000pt" height="16.000000pt" viewBox="0 0 16.000000 16.000000"
 preserveAspectRatio="xMidYMid meet">

<g transform="translate(0.000000,16.000000) scale(0.100000,-0.100000)"
fill="#000000" stroke="none">
<path d="M0 126 c0 -33 1 -34 34 -26 37 8 63 -1 52 -19 -4 -6 -15 -11 -25 -11
-10 0 -24 -11 -31 -25 -10 -18 -16 -22 -22 -13 -5 9 -8 6 -8 -9 0 -22 4 -23
80 -23 l80 0 0 80 0 80 -80 0 -80 0 0 -34z"/>
</g>
</svg>
